name analog
datacolumns 19
datarows 47
range 0.376 0.399
endheader
time	ground_force_vx	ground_force_vy	ground_force_vz	ground_force_px	ground_force_py	ground_force_pz	l_ground_force_vx	l_ground_force_vy	l_ground_force_vz	l_ground_force_px	l_ground_force_py	l_ground_force_pz	ground_torque_x	ground_torque_y	ground_torque_z	l_ground_torque_x	l_ground_torque_y	l_ground_torque_z
0.376	-0.0	-0.0	-0.0	-4.008116722106934	62.1127815246582	-371.9488220214844	12.780349731445312	-61.38656234741211	-426.6514587402344	-0.0	-0.0	-0.0	-0.0	-0.0	-0.0	114935.640625	-40078.0390625	2633.596923828125
0.3765	-0.0	-0.0	-0.0	-3.6543803215026855	62.20814895629883	-375.0899658203125	13.123054504394531	-61.64242172241211	-425.9710083007813	-0.0	-0.0	-0.0	-0.0	-0.0	-0.0	114689.7890625	-40058.20703125	2489.5625
0.377	-0.0	-0.0	-0.0	-3.839375495910645	62.03144073486328	-377.5230712890625	12.690357208251951	-60.84894943237305	-425.6405944824219	-0.0	-0.0	-0.0	-0.0	-0.0	-0.0	114774.2734375	-39971.984375	2750.2236328125
0.3775	-0.0	-0.0	-0.0	-3.745143175125122	62.12049865722656	-378.5887145996094	12.951774597167969	-60.68180465698242	-425.6031799316406	-0.0	-0.0	-0.0	-0.0	-0.0	-0.0	114632.9765625	-40010.515625	2691.613037109375
0.378	-0.0	-0.0	-0.0	-3.8360519409179688	62.91228485107422	-379.2879333496094	12.94850730895996	-60.67862701416016	-425.2795104980469	-0.0	-0.0	-0.0	-0.0	-0.0	-0.0	114762.171875	-40015.03125	2781.670166015625
0.3785	-0.0	-0.0	-0.0	-4.462285995483398	62.22181701660156	-380.0355529785156	13.129196166992188	-60.93365097045898	-425.9715270996094	-0.0	-0.0	-0.0	-0.0	-0.0	-0.0	114967.296875	-40060.890625	2633.401611328125
0.379	-0.0	-0.0	-0.0	-4.71917200088501	62.49836730957031	-380.3819274902344	13.390210151672363	-60.32711410522461	-424.9175415039063	-0.0	-0.0	-0.0	-0.0	-0.0	-0.0	114352.6171875	-39990.796875	2693.627685546875
0.3795	-0.0	-0.0	-0.0	-4.897463321685791	63.26983642578125	-382.0540771484375	13.383207321166992	-60.58350372314453	-423.9382019042969	-0.0	-0.0	-0.0	-0.0	-0.0	-0.0	114757.1015625	-40047.35546875	2662.7353515625
0.38	-0.0	-0.0	-0.0	-4.731875896453857	63.18231201171875	-381.434326171875	13.395328521728516	-60.05874633789063	-425.9232177734375	-0.0	-0.0	-0.0	-0.0	-0.0	-0.0	114469.34375	-40046.18359375	2777.96240234375
0.3805	-0.0	-0.0	-0.0	-4.815471649169922	62.6624641418457	-379.3452758789063	13.228731155395508	-59.97940826416016	-424.9530334472656	-0.0	-0.0	-0.0	-0.0	-0.0	-0.0	114855.0546875	-40398.76171875	2663.333740234375
0.381	-0.0	-0.0	-0.0	-4.213994979858398	62.82926940917969	-379.66845703125	13.74834156036377	-59.88574600219727	-425.6302490234375	-0.0	-0.0	-0.0	-0.0	-0.0	-0.0	114591.703125	-39969.76953125	2663.718505859375
0.3815	-0.0	-0.0	-0.0	-4.735975742340088	62.315826416015625	-380.7047424316406	14.09755039215088	-60.22795867919922	-426.6706237792969	-0.0	-0.0	-0.0	-0.0	-0.0	-0.0	114868.546875	-40232.5078125	2605.163818359375
0.382	-0.0	-0.0	-0.0	-4.718201637268066	62.9300422668457	-379.3231201171875	13.58035945892334	-59.79946517944336	-424.9175415039063	-0.0	-0.0	-0.0	-0.0	-0.0	-0.0	114586.5234375	-39811.00390625	2605.541015625
0.3825	-0.0	-0.0	-0.0	-4.900527000427246	63.08820343017578	-378.2796936035156	13.566976547241213	-59.53839874267578	-426.67083740234375	-0.0	-0.0	-0.0	-0.0	-0.0	-0.0	114902.0234375	-40093.4140625	2517.89990234375
0.383	-0.0	-0.0	-0.0	-4.90247106552124	62.6668815612793	-376.5223388671875	13.22182846069336	-59.62104797363281	-426.2909851074219	-0.0	-0.0	-0.0	-0.0	-0.0	-0.0	114709.765625	-40113.85546875	2513.736083984375
0.3835	-0.0	-0.0	-0.0	-4.912847995758057	62.5758056640625	-379.3235168457031	13.040485382080078	-58.74187850952149	-426.97314453125	-0.0	-0.0	-0.0	-0.0	-0.0	-0.0	114783.3203125	-39834.16015625	2313.491455078125
0.384	-0.0	-0.0	-0.0	-5.342050075531006	62.84539413452149	-378.60888671875	13.393305778503418	-59.2537841796875	-425.9729309082031	-0.0	-0.0	-0.0	-0.0	-0.0	-0.0	115076.3828125	-39984.1328125	2337.25732421875
0.3845	-0.0	-0.0	-0.0	-4.647555828094482	63.09787368774414	-376.5750122070313	13.300440788269045	-58.820194244384766	-424.9985961914063	-0.0	-0.0	-0.0	-0.0	-0.0	-0.0	114991.71875	-39993.49609375	2422.8388671875
0.385	-0.0	-0.0	-0.0	-4.203837394714356	63.01519775390625	-377.5667114257813	13.211621284484863	-58.290225982666016	-426.7044982910156	-0.0	-0.0	-0.0	-0.0	-0.0	-0.0	115090.984375	-39999.3515625	2338.750244140625
0.3855	-0.0	-0.0	-0.0	-4.462750434875488	62.845829010009766	-379.6948852539063	12.958168983459473	-58.29019165039063	-426.34771728515625	-0.0	-0.0	-0.0	-0.0	-0.0	-0.0	115288.703125	-39838.953125	2190.974365234375
0.386	-0.0	-0.0	-0.0	-3.7445905208587646	62.4939079284668	-380.3391723632813	12.521163940429688	-57.846412658691406	-427.02093505859375	-0.0	-0.0	-0.0	-0.0	-0.0	-0.0	115206.5859375	-39980.7265625	2158.244140625
0.3865	-0.0	-0.0	-0.0	-4.00532341003418	62.935203552246094	-380.6736450195313	12.783126831054688	-57.68280029296875	-426.6632690429688	-0.0	-0.0	-0.0	-0.0	-0.0	-0.0	115202.2421875	-39964.9453125	2069.455810546875
0.387	-0.0	-0.0	-0.0	-3.655307054519653	62.92374038696289	-381.0535888671875	12.67672348022461	-57.49742126464844	-427.0650939941406	-0.0	-0.0	-0.0	-0.0	-0.0	-0.0	115517.5234375	-39966.36328125	1983.3931884765625
0.3875	-0.0	-0.0	-0.0	-3.0284578800201416	62.66337203979492	-381.4157104492188	12.339820861816406	-57.41583251953125	-428.0421142578125	-0.0	-0.0	-0.0	-0.0	-0.0	-0.0	116089.4296875	-39992.10546875	1837.8880615234373
0.388	-0.0	-0.0	-0.0	-3.1223678588867188	62.82978439331055	-382.7998046875	11.896411895751951	-57.325340270996094	-429.0712890625	-0.0	-0.0	-0.0	-0.0	-0.0	-0.0	115890.28125	-39838.9140625	1771.4434814453125
0.3885	-0.0	-0.0	-0.0	-3.214000940322876	62.926063537597656	-381.4631042480469	11.71680736541748	-56.80011749267578	-428.767333984375	-0.0	-0.0	-0.0	-0.0	-0.0	-0.0	115680.1015625	-39853.52734375	1655.092041015625
0.389	-0.0	-0.0	-0.0	-3.025822162628174	62.66111755371094	-381.46337890625	11.712177276611328	-56.80256271362305	-429.45648193359375	-0.0	-0.0	-0.0	-0.0	-0.0	-0.0	116125.3984375	-39842.87109375	1540.3671875
0.3895	-0.0	-0.0	-0.0	-2.500375747680664	62.56954193115234	-381.48345947265625	11.45564079284668	-56.96749114990234	-429.4376831054688	-0.0	-0.0	-0.0	-0.0	-0.0	-0.0	115880.9140625	-39687.16796875	1537.0067138671875
0.39	-0.0	-0.0	-0.0	-2.513001680374145	62.12892532348633	-382.1905212402344	11.362258911132812	-57.13447189331055	-429.12646484375	-0.0	-0.0	-0.0	-0.0	-0.0	-0.0	115699.0625	-39697.18359375	1508.868408203125
0.3905	-0.0	-0.0	-0.0	-2.4239463806152344	62.38874053955078	-380.0618896484375	11.798534393310549	-56.79084777832031	-428.1177062988281	-0.0	-0.0	-0.0	-0.0	-0.0	-0.0	115422.6171875	-39498.84765625	1560.429443359375
0.391	-0.0	-0.0	-0.0	-2.859896659851074	61.85907745361328	-379.6888732910156	11.70485496520996	-56.68767929077149	-429.4369201660156	-0.0	-0.0	-0.0	-0.0	-0.0	-0.0	115737.0390625	-39443.9609375	1419.46142578125
0.3915	-0.0	-0.0	-0.0	-3.127601146697998	62.03214645385742	-381.11224365234375	11.451253890991213	-56.447601318359375	-429.0279846191406	-0.0	-0.0	-0.0	-0.0	-0.0	-0.0	115523.5625	-39341.7890625	1331.217041015625
0.392	-0.0	-0.0	-0.0	-3.2062928676605225	61.610233306884766	-380.3852844238281	11.78580093383789	-57.04313278198242	-428.7381286621094	-0.0	-0.0	-0.0	-0.0	-0.0	-0.0	115554.390625	-39484.5546875	1449.1343994140625
0.3925	-0.0	-0.0	-0.0	-3.284715414047241	61.32171630859375	-379.0045166015625	11.884662628173828	-57.06352233886719	-427.0226135253906	-0.0	-0.0	-0.0	-0.0	-0.0	-0.0	115550.4296875	-39316.72265625	1533.0338134765625
0.393	-0.0	-0.0	-0.0	-3.119652509689331	61.23530197143555	-379.2829895019531	11.968099594116213	-57.1467399597168	-428.737548828125	-0.0	-0.0	-0.0	-0.0	-0.0	-0.0	115422.1796875	-39424.6015625	1421.3734130859375
0.3935	-0.0	-0.0	-0.0	-3.195067882537842	61.50547409057617	-379.97802734375	11.981266021728516	-57.15999603271485	-428.76861572265625	-0.0	-0.0	-0.0	-0.0	-0.0	-0.0	115434.6875	-39242.36328125	1537.42041015625
0.394	-0.0	-0.0	-0.0	-2.757192850112915	61.57801055908203	-378.2227478027344	12.14533519744873	-57.588409423828125	-429.467041015625	-0.0	-0.0	-0.0	-0.0	-0.0	-0.0	115512.9609375	-39292.9609375	1508.6693115234375
0.3945	-0.0	-0.0	-0.0	-3.200321912765503	61.045894622802734	-377.1961669921875	12.328082084655762	-58.1048469543457	-430.5146484375	-0.0	-0.0	-0.0	-0.0	-0.0	-0.0	115624.3515625	-39238.57421875	1420.6087646484375
0.395	-0.0	-0.0	-0.0	-3.0331573486328125	60.77838897705078	-377.4929504394531	11.89550495147705	-57.96369934082031	-431.5405578613281	-0.0	-0.0	-0.0	-0.0	-0.0	-0.0	116143.46875	-39375.0703125	1504.761962890625
0.3955	-0.0	-0.0	-0.0	-3.211578369140625	60.341285705566406	-374.3821105957031	11.368876457214355	-58.20676040649414	-432.893310546875	-0.0	-0.0	-0.0	-0.0	-0.0	-0.0	116411.65625	-39569.28125	1474.644287109375
0.396	-0.0	-0.0	-0.0	-3.82731294631958	59.80650329589844	-375.0309448242188	11.709823608398438	-58.97645950317383	-433.6130676269531	-0.0	-0.0	-0.0	-0.0	-0.0	-0.0	116842.3984375	-39388.5859375	1269.8431396484375
0.3965	-0.0	-0.0	-0.0	-3.4910075664520264	59.63708114624024	-372.6282043457031	11.712675094604492	-58.73108673095703	-432.959228515625	-0.0	-0.0	-0.0	-0.0	-0.0	-0.0	116574.734375	-39717.14453125	1179.9739990234375
0.397	-0.0	-0.0	-0.0	-3.827136516571045	59.53316879272461	-371.2509765625	11.432195663452148	-59.161224365234375	-433.3424377441406	-0.0	-0.0	-0.0	-0.0	-0.0	-0.0	116720.1328125	-39445.36328125	1236.1102294921875
0.3975	-0.0	-0.0	-0.0	-4.014472961425781	59.63726043701172	-371.26361083984375	10.928888320922852	-59.198707580566406	-432.9594421386719	-0.0	-0.0	-0.0	-0.0	-0.0	-0.0	116279.140625	-39418.8203125	1233.7601318359375
0.398	-0.0	-0.0	-0.0	-3.3190572261810303	58.9304084777832	-371.192138671875	11.18639850616455	-59.62007522583008	-433.6926879882813	-0.0	-0.0	-0.0	-0.0	-0.0	-0.0	116752.0	-39303.43359375	1086.4405517578125
0.3985	-0.0	-0.0	-0.0	-4.082189083099365	59.096527099609375	-372.2273254394531	10.751838684082031	-59.52289962768555	-432.9714050292969	-0.0	-0.0	-0.0	-0.0	-0.0	-0.0	116554.6484375	-39263.7109375	971.4412231445312
0.399	-0.0	-0.0	-0.0	-3.768590927124024	59.52669143676758	-370.863525390625	10.553574562072754	-59.95844650268555	-432.6580810546875	-0.0	-0.0	-0.0	-0.0	-0.0	-0.0	116387.171875	-39030.2734375	999.8475952148438
